<svg id="Layer_1" data-name="Layer 1" xmlns="http://www.w3.org/2000/svg" xmlns:xlink="http://www.w3.org/1999/xlink" viewBox="0 0 1241.01 665.53"><defs><style>.cls-1{fill:none;}.cls-1,.cls-2{stroke:#178b00;}.cls-1,.cls-2,.cls-8{stroke-miterlimit:10;}.cls-2{fill:#ffb917;}.cls-3{clip-path:url(#clip-path);}.cls-4{fill:#d4ff17;}.cls-5{fill:#178b00;}.cls-6{fill:#c7ff2e;}.cls-7{fill:#56ff45;}.cls-8{fill:#92ff00;stroke:#a8be00;stroke-width:9px;}</style><clipPath id="clip-path" transform="translate(75 65)"><rect class="cls-1" y="1" width="397" height="397"/></clipPath></defs><rect class="cls-2" x="75.5" y="66.5" width="396" height="396"/><g class="cls-3"><polygon class="cls-4" points="129.49 122.44 625.65 401.56 302.87 664.68 129.49 122.44"/><path class="cls-5" d="M55.35,58.5,549.77,336.64,228.12,598.83,55.35,58.5m-1.73-2.12,174,544.15,323.92-264L53.62,56.38Z" transform="translate(75 65)"/><circle class="cls-6" cx="117.5" cy="117.5" r="117"/><path class="cls-7" d="M42.5-64A116.49,116.49,0,0,1,159,52.5,116.49,116.49,0,0,1,42.5,169a115.76,115.76,0,0,1-82.38-34.12A115.76,115.76,0,0,1-74,52.5,115.76,115.76,0,0,1-39.88-29.88,115.76,115.76,0,0,1,42.5-64m0-1A117.5,117.5,0,1,0,160,52.5,117.5,117.5,0,0,0,42.5-65Z" transform="translate(75 65)"/></g><rect class="cls-1" x="75" y="66" width="397" height="397"/><path class="cls-8" d="M477.85,137.9H426.71V103.46h9.11a8.74,8.74,0,0,0,8.73-8.73,8.36,8.36,0,0,0-1.39-4.94L431.39,73.72a22.45,22.45,0,0,1-4.3-13.55A24,24,0,0,1,451,36.25h48.61V68.78H486.46A5.48,5.48,0,0,0,481,74.22a6,6,0,0,0,.89,2.91l15.69,21.52a25.78,25.78,0,0,1,4.82,14.69A24.67,24.67,0,0,1,477.85,137.9Z" transform="translate(75 65)"/><path class="cls-8" d="M558.11,99.54V36.25h40.63V137.9H531.65A25.8,25.8,0,0,1,506,112.2V36.25h40.51V99.54a5.83,5.83,0,0,0,11.65,0Z" transform="translate(75 65)"/><path class="cls-8" d="M646.34,137.9H604.82V36.25h37.35a216.81,216.81,0,0,1,19.11,26.2V36.25h41.39V137.9H665.33c-2.66-17.73-6.71-34.06-19-47.73Z" transform="translate(75 65)"/><path class="cls-8" d="M814.84,108.27a29.83,29.83,0,0,1-29.63,29.63H708.76V36.25h74.3a25.66,25.66,0,0,1,25.57,25.57,25.93,25.93,0,0,1-9.87,20.12A29.93,29.93,0,0,1,814.84,108.27Zm-65.58-32,12-1.27c3.8-.38,7.34-4.18,7.34-8a4.76,4.76,0,0,0-4.81-4.94,1.32,1.32,0,0,0-.63.13l-13.93,1.39Zm14.81,30.63a8.51,8.51,0,0,0,7.35-8A4.66,4.66,0,0,0,766.73,94a1.59,1.59,0,0,0-.76.13l-16.71,1.64v12.79Z" transform="translate(75 65)"/><path class="cls-8" d="M846.61,137.9a25.8,25.8,0,0,1-25.69-25.7V36.25H906V68.78H865.22v9h41.65V96.25H865.22v9.11H906V137.9Z" transform="translate(75 65)"/><path class="cls-8" d="M975,137.9V119.16h-17.6l-3,18.74H913l15.44-77.73c2.53-12.78,11.65-23.92,25.45-23.92h61V137.9Zm0-69.12h-9.12l-3.8,22.53H975Z" transform="translate(75 65)"/><path class="cls-8" d="M1103.09,36.25h45.57c9,33.16,12.28,67.34,12.78,101.65H1119c.12-3.55.12-7.09.12-10.64,0-11.39-.76-22.91-3.79-33.92l-12.91,44.56h-22.41l-12.91-44.56c-3,11-3.93,22.53-3.93,33.92,0,3.55.13,7.09.26,10.64h-42.54c.51-34.31,3.8-68.49,12.79-101.65h45.57l11.9,42.15Z" transform="translate(75 65)"/><path class="cls-8" d="M477.85,289.81H426.71V255.38h9.11a8.75,8.75,0,0,0,8.73-8.74,8.39,8.39,0,0,0-1.39-4.94l-11.77-16.07a22.45,22.45,0,0,1-4.3-13.55A24,24,0,0,1,451,188.16h48.61v32.53H486.46a5.49,5.49,0,0,0-5.45,5.44,5.94,5.94,0,0,0,.89,2.91l15.69,21.53a25.73,25.73,0,0,1,4.82,14.68A24.67,24.67,0,0,1,477.85,289.81Z" transform="translate(75 65)"/><path class="cls-8" d="M582.67,188.16v32.53h-17.6v69.12H523.55V220.69H506V188.16Z" transform="translate(75 65)"/><path class="cls-8" d="M640.9,251.45V188.16h40.63V289.81H614.44a25.8,25.8,0,0,1-25.69-25.7v-76h40.5v63.29a5.83,5.83,0,0,0,11.65,0Z" transform="translate(75 65)"/><path class="cls-8" d="M738,188.16c28.35,0,47.09,23.67,47.09,50.76S766.35,289.81,738,289.81H687.61V188.16Zm-11.4,65.06h3.8c9.24,0,14.05-7.84,14.05-16.33s-4.81-16.2-14.05-16.2h-3.8Z" transform="translate(75 65)"/><path class="cls-8" d="M832.69,289.81H791.17V188.16h41.52Z" transform="translate(75 65)"/><path class="cls-8" d="M860.16,284.24c-14.94-9.62-21.4-28.23-21.4-45.32s6.46-35.7,21.4-45.19c10-6.46,22.91-9,34.68-9,33.42,0,56.46,20.51,56.46,54.56,0,17.47-7.34,34.94-22.28,44.68-10,6.59-22.4,9.24-34.18,9.24S870.16,290.69,860.16,284.24Zm35.06-64.06c-9.11,0-11.9,11.78-11.9,19s2.79,19.24,11.9,19.24,11.9-11.9,11.9-19.24S904.59,220.18,895.22,220.18Z" transform="translate(75 65)"/><path class="cls-8" d="M1004.73,289.81H953.58V255.38h9.12a8.75,8.75,0,0,0,8.73-8.74A8.39,8.39,0,0,0,970,241.7l-11.77-16.07A22.46,22.46,0,0,1,954,212.08a24,24,0,0,1,23.93-23.92h48.61v32.53h-13.17a5.48,5.48,0,0,0-5.44,5.44,5.94,5.94,0,0,0,.89,2.91l15.69,21.53a25.72,25.72,0,0,1,4.81,14.68A24.66,24.66,0,0,1,1004.73,289.81Z" transform="translate(75 65)"/></svg>