<!-- Generator: Adobe Illustrator 25.2.1, SVG Export Plug-In  -->
<svg version="1.1" xmlns="http://www.w3.org/2000/svg" xmlns:xlink="http://www.w3.org/1999/xlink" x="0px" y="0px"
	 width="1386.603px" height="767.269px" viewBox="0 0 1386.603 767.269"
	 style="overflow:visible;enable-background:new 0 0 1386.603 767.269;" xml:space="preserve">
<style type="text/css">
	.st0{fill:#FFB917;stroke:#178B00;stroke-miterlimit:10;}
	.st1{clip-path:url(#SVGID_2_);}
	.st2{fill:#D4FF17;}
	.st3{fill:#178B00;}
	.st4{fill:#C7FF2E;}
	.st5{fill:#56FF45;}
	.st6{fill:#92FF00;stroke:#A8BE00;stroke-width:9;stroke-miterlimit:10;}
	.st7{fill:#92FF00;stroke:#A8BE00;stroke-width:3;stroke-miterlimit:10;}
	.st8{clip-path:url(#SVGID_4_);}
	.st9{font-family:'BabyCakesNF';}
	.st10{font-size:126.5936px;}
	.st11{letter-spacing:-2;}
	.st12{letter-spacing:-3;}
	.st13{font-size:60px;}
</style>
<defs>
</defs>
<g>
	<rect x="75.5" y="66.5" class="st0" width="396" height="396"/>
	<g>
		<g>
			<defs>
				<rect id="SVGID_1_" x="75" y="66" width="397" height="397"/>
			</defs>
			<clipPath id="SVGID_2_">
				<use xlink:href="#SVGID_1_"  style="overflow:visible;"/>
			</clipPath>
			<g class="st1">
				<polygon class="st2" points="129.489,122.438 625.65,401.56 302.868,664.679 				"/>
				<path class="st3" d="M130.352,123.498l494.414,278.138L303.121,663.828L130.352,123.498 M128.625,121.378L302.615,665.53
					l323.92-264.046L128.625,121.378L128.625,121.378z"/>
			</g>
			<g class="st1">
				<circle class="st4" cx="117.5" cy="117.5" r="117"/>
				<path class="st5" d="M117.5,1c31.118,0,60.374,12.118,82.378,34.122S234,86.382,234,117.5s-12.118,60.374-34.122,82.378
					S148.618,234,117.5,234s-60.374-12.118-82.378-34.122S1,148.618,1,117.5s12.118-60.374,34.122-82.378S86.382,1,117.5,1 M117.5,0
					C52.607,0,0,52.607,0,117.5S52.607,235,117.5,235S235,182.393,235,117.5S182.393,0,117.5,0L117.5,0z"/>
			</g>
			<use xlink:href="#SVGID_1_"  style="overflow:visible;fill:none;stroke:#178B00;stroke-miterlimit:10;"/>
		</g>
	</g>
</g>
<g>
	<path class="st6" d="M552.847,202.895h-51.141v-34.432h9.114c4.811,0,8.734-3.924,8.734-8.734c0-1.772-0.38-3.544-1.393-4.937
		l-11.772-16.076c-2.911-3.798-4.304-8.735-4.304-13.545c0-13.165,10.76-23.925,23.925-23.925h48.609v32.533h-13.165
		c-2.912,0-5.443,2.405-5.443,5.443c0,1.013,0.38,2.025,0.886,2.912l15.697,21.52c3.038,4.304,4.811,9.494,4.811,14.684
		C577.405,191.755,566.392,202.895,552.847,202.895z"/>
	<path class="st6" d="M633.108,164.539v-63.293h40.634v101.649h-67.091c-14.178,0-25.697-11.646-25.697-25.697v-75.952h40.508
		v63.293c0,3.165,2.658,5.823,5.823,5.823C630.45,170.362,633.108,167.704,633.108,164.539z"/>
	<path class="st6" d="M721.343,202.895h-41.521V101.246h37.343c6.962,8.228,13.418,16.962,19.114,26.203v-26.203h41.395v101.649
		h-37.344c-2.658-17.722-6.709-34.052-18.988-47.723V202.895z"/>
	<path class="st6" d="M889.836,173.274c0,16.203-13.418,29.621-29.621,29.621h-76.459V101.246h74.307
		c14.051,0,25.57,11.519,25.57,25.57c0,7.849-3.798,15.317-9.874,20.127C883.506,152.007,889.836,162.261,889.836,173.274z
		 M824.264,141.247l12.025-1.266c3.798-0.38,7.343-4.177,7.343-7.975c0-2.785-2.025-4.937-4.811-4.937c-0.127,0-0.38,0-0.633,0.127
		l-13.925,1.393V141.247z M839.074,171.881c3.924-0.38,7.342-4.177,7.342-7.975c0-2.785-1.898-4.937-4.684-4.937
		c-0.253,0-0.506,0-0.76,0.126l-16.709,1.646v12.785L839.074,171.881z"/>
	<path class="st6" d="M921.613,202.895c-14.178,0-25.697-11.646-25.697-25.697v-75.952h85.066v32.533h-40.761v8.988h41.646v18.481
		h-41.646v9.114h40.761v32.533H921.613z"/>
	<path class="st6" d="M1049.976,202.895V184.16h-17.596l-3.038,18.735h-41.394l15.443-77.724
		c2.532-12.785,11.646-23.925,25.444-23.925h61.015v101.649H1049.976z M1049.976,133.779h-9.114l-3.797,22.532h12.911V133.779z"/>
	<path class="st6" d="M1178.088,101.246h45.571c8.987,33.166,12.278,67.344,12.785,101.649h-42.407
		c0.127-3.544,0.127-7.089,0.127-10.633c0-11.393-0.76-22.912-3.798-33.925l-12.911,44.559h-22.406l-12.912-44.559
		c-3.038,11.013-3.924,22.533-3.924,33.925c0,3.544,0.126,7.089,0.253,10.633h-42.533c0.507-34.305,3.798-68.483,12.785-101.649
		h45.571l11.899,42.153L1178.088,101.246z"/>
	<path class="st6" d="M552.847,354.807h-51.141v-34.432h9.114c4.811,0,8.734-3.924,8.734-8.734c0-1.772-0.38-3.544-1.393-4.937
		l-11.772-16.076c-2.911-3.798-4.304-8.735-4.304-13.545c0-13.165,10.76-23.925,23.925-23.925h48.609v32.533h-13.165
		c-2.912,0-5.443,2.405-5.443,5.443c0,1.013,0.38,2.025,0.886,2.912l15.697,21.52c3.038,4.304,4.811,9.494,4.811,14.684
		C577.405,343.667,566.392,354.807,552.847,354.807z"/>
	<path class="st6" d="M657.666,253.158v32.533h-17.595v69.116H598.55v-69.116h-17.596v-32.533H657.666z"/>
	<path class="st6" d="M715.899,316.451v-63.293h40.634v101.649h-67.091c-14.178,0-25.697-11.646-25.697-25.697v-75.952h40.508
		v63.293c0,3.165,2.658,5.823,5.823,5.823C713.241,322.274,715.899,319.616,715.899,316.451z"/>
	<path class="st6" d="M812.996,253.158c28.355,0,47.09,23.671,47.09,50.761c0,27.216-18.734,50.888-47.09,50.888h-50.382V253.158
		H812.996z M801.604,318.224h3.797c9.241,0,14.052-7.849,14.052-16.33c0-8.355-4.811-16.203-14.052-16.203h-3.797V318.224z"/>
	<path class="st6" d="M907.688,354.807h-41.521V253.158h41.521V354.807z"/>
	<path class="st6" d="M935.158,349.237c-14.938-9.621-21.394-28.229-21.394-45.318s6.456-35.698,21.394-45.192
		c10-6.456,22.912-8.987,34.685-8.987c33.419,0,56.458,20.507,56.458,54.559c0,17.469-7.343,34.938-22.279,44.686
		c-10.001,6.583-22.406,9.241-34.179,9.241S945.158,355.693,935.158,349.237z M970.223,285.185
		c-9.114,0-11.899,11.772-11.899,18.988c0,7.342,2.785,19.241,11.899,19.241c9.24,0,11.898-11.899,11.898-19.241
		C982.121,296.957,979.59,285.185,970.223,285.185z"/>
	<path class="st6" d="M1079.727,354.807h-51.142v-34.432h9.114c4.811,0,8.734-3.924,8.734-8.734c0-1.772-0.38-3.544-1.393-4.937
		l-11.772-16.076c-2.911-3.798-4.304-8.735-4.304-13.545c0-13.165,10.76-23.925,23.925-23.925h48.609v32.533h-13.165
		c-2.911,0-5.443,2.405-5.443,5.443c0,1.013,0.38,2.025,0.887,2.912l15.696,21.52c3.038,4.304,4.811,9.494,4.811,14.684
		C1104.284,343.667,1093.271,354.807,1079.727,354.807z"/>
</g>
<g>
	<path class="st7" d="M981.727,521.869c0,9.36-6.721,16.62-15.48,19.02l-11.459,3.18v8.76h-19.68V504.65h30.539
		C975.246,504.65,981.727,512.631,981.727,521.869z M961.027,522.65c0-2.16-1.141-4.32-3.541-4.32h-2.699v10.5
		C957.967,527.99,961.027,526.43,961.027,522.65z"/>
	<path class="st7" d="M1008.427,533.09c-2.28,0-4.14,1.859-4.14,4.139v15.6h-19.68V513.95h19.68v3.06
		c3.061-2.279,6.779-3.539,10.56-3.539v19.619H1008.427z"/>
	<path class="st7" d="M1027.326,551.389c-6.42-3.6-9.6-10.859-9.6-18c0-7.199,3.24-14.398,9.6-17.998
		c4.44-2.521,10.08-3.42,15.061-3.42c8.879,0,17.578,2.939,22.139,11.039c1.8,3.18,2.76,6.84,2.76,10.5
		c0,3.539-0.9,7.139-2.641,10.199c-4.559,8.22-13.379,11.1-22.258,11.1C1037.346,554.809,1031.767,553.908,1027.326,551.389z
		 M1042.566,527.51c-3.12,0-4.32,3.3-4.32,5.939c0,2.7,1.141,6.061,4.32,6.061c3.239,0,4.319-3.36,4.319-6.061
		C1046.886,530.81,1045.806,527.51,1042.566,527.51z"/>
	<path class="st7" d="M1094.105,504.65h19.68v48.178h-21.72c-13.079,0-21.899-10.68-21.899-23.279
		c0-10.559,6.12-15.599,16.38-15.599h7.56V504.65z M1094.105,528.59h-2.1c-1.92,0-3.36,0.66-3.36,2.819c0,3.36,2.04,5.88,5.46,6
		V528.59z"/>
	<path class="st7" d="M1140.545,535.129V513.95h18.84v38.878h-30.84c-6.539,0-11.879-5.399-11.879-11.939V513.95h18.84v21.179
		c0,1.381,1.139,2.521,2.52,2.521C1139.405,537.649,1140.545,536.51,1140.545,535.129z"/>
	<path class="st7" d="M1182.425,552.828c-11.339,0-20.159-7.859-20.159-19.439c0-11.639,8.82-19.438,20.159-19.438h10.2v14.04
		h-5.521c-2.64,0-4.979,1.379-4.979,4.26c0,2.879,2.34,4.319,4.979,4.319h5.521v16.259H1182.425z"/>
	<path class="st7" d="M1208.104,552.828c-6.899,0-12.6-5.699-12.6-12.659V504.65h20.159v9.3h5.7v14.04h-5.7v7.739
		c0,1.62,1.38,2.999,3.06,2.999h2.521v14.1H1208.104z"/>
	<path class="st7" d="M1244.584,552.828h-19.619V513.95h5.819l-7.979-9.3h23.939l-7.98,9.3h5.82V552.828z"/>
	<path class="st7" d="M1257.783,551.389c-6.42-3.6-9.6-10.859-9.6-18c0-7.199,3.239-14.398,9.6-17.998
		c4.439-2.521,10.079-3.42,15.059-3.42c8.88,0,17.58,2.939,22.14,11.039c1.8,3.18,2.76,6.84,2.76,10.5
		c0,3.539-0.9,7.139-2.64,10.199c-4.561,8.22-13.38,11.1-22.26,11.1C1267.803,554.809,1262.223,553.908,1257.783,551.389z
		 M1273.022,527.51c-3.12,0-4.32,3.3-4.32,5.939c0,2.7,1.14,6.061,4.32,6.061c3.239,0,4.319-3.36,4.319-6.061
		C1277.342,530.81,1276.262,527.51,1273.022,527.51z"/>
	<path class="st7" d="M1300.623,552.828V513.95h32.039c6.899,0,12.6,5.64,12.6,12.6v26.278h-20.159V530.39
		c0-1.261-1.14-2.399-2.399-2.399c-1.32,0-2.4,1.139-2.4,2.399v22.438H1300.623z"/>
	<path class="st7" d="M1372.742,552.828h-24.6v-15.419h7.5c1.141,0,2.1-0.96,2.1-2.16c0-3.54-6.419-5.1-6.419-12.06
		c0-5.76,5.579-9.239,10.919-9.239h21.3v14.52h-4.62c-1.2,0-2.4,0.659-2.4,2.04c0,3.479,7.141,6.959,7.141,13.26
		C1383.662,549.949,1378.322,552.828,1372.742,552.828z"/>
</g>
<g>
	<path class="st7" d="M176.507,650.828v-8.879h-8.34l-1.44,8.879h-19.619l7.32-36.838c1.2-6.061,5.52-11.34,12.06-11.34h28.918
		v48.178H176.507z M176.507,618.07h-4.32l-1.8,10.68h6.12V618.07z"/>
	<path class="st7" d="M225.466,611.95c10.32,0,16.439,5.04,16.439,15.599c0,12.6-8.879,23.279-21.899,23.279h-21.719V602.65h19.679
		v9.3H225.466z M223.427,629.409c0-2.159-1.44-2.819-3.42-2.819h-2.04v8.819C221.387,635.289,223.427,632.77,223.427,629.409z"/>
	<path class="st7" d="M254.387,649.389c-6.42-3.6-9.6-10.859-9.6-18c0-7.199,3.24-14.398,9.6-17.998
		c4.44-2.521,10.08-3.42,15.06-3.42c8.879,0,17.579,2.939,22.139,11.039c1.8,3.18,2.76,6.84,2.76,10.5
		c0,3.539-0.9,7.139-2.64,10.199c-4.56,8.22-13.379,11.1-22.259,11.1C264.407,652.809,258.827,651.908,254.387,649.389z
		 M269.626,625.51c-3.12,0-4.32,3.3-4.32,5.939c0,2.7,1.14,6.061,4.32,6.061c3.24,0,4.32-3.36,4.32-6.061
		C273.946,628.81,272.866,625.51,269.626,625.51z"/>
	<path class="st7" d="M321.106,633.129V611.95h18.839v38.878h-30.839c-6.54,0-11.879-5.399-11.879-11.939V611.95h18.839v21.179
		c0,1.381,1.14,2.521,2.52,2.521C319.966,635.649,321.106,634.51,321.106,633.129z"/>
	<path class="st7" d="M355.426,650.828c-6.9,0-12.6-5.699-12.6-12.659V602.65h20.159v9.3h5.7v14.04h-5.7v7.739
		c0,1.62,1.38,2.999,3.06,2.999h2.52v14.1H355.426z"/>
	<path class="st7" d="M418.785,632.649V602.65h19.259v48.178h-31.798c-6.72,0-12.18-5.52-12.18-12.18V602.65h19.2v29.999
		c0,1.5,1.26,2.76,2.76,2.76S418.785,634.149,418.785,632.649z"/>
	<path class="st7" d="M465.524,650.828h-24.599v-15.419h7.499c1.14,0,2.101-0.96,2.101-2.16c0-3.54-6.42-5.1-6.42-12.06
		c0-5.76,5.579-9.239,10.919-9.239h21.3v14.52h-4.62c-1.2,0-2.4,0.659-2.4,2.04c0,3.479,7.14,6.959,7.14,13.26
		C476.443,647.949,471.104,650.828,465.524,650.828z"/>
</g>
<g>
	<path class="st7" d="M741.247,705.65v15.42h-5.7c-5.4,0-8.4,3.42-8.4,8.639c0,5.28,3,8.7,8.4,8.7h5.7v15.419h-10.5
		c-14.1,0-23.639-10.139-23.639-24.119c0-13.979,9.479-24.059,23.639-24.059H741.247z"/>
	<path class="st7" d="M753.727,752.389c-6.42-3.6-9.6-10.859-9.6-18c0-7.199,3.24-14.398,9.6-17.998
		c4.44-2.521,10.08-3.42,15.06-3.42c8.879,0,17.578,2.939,22.139,11.039c1.8,3.18,2.76,6.84,2.76,10.5
		c0,3.539-0.9,7.139-2.641,10.199c-4.559,8.22-13.379,11.1-22.258,11.1C763.746,755.809,758.167,754.908,753.727,752.389z
		 M768.967,728.51c-3.12,0-4.32,3.3-4.32,5.939c0,2.7,1.141,6.061,4.32,6.061c3.239,0,4.319-3.36,4.319-6.061
		C773.286,731.81,772.206,728.51,768.967,728.51z"/>
	<path class="st7" d="M796.566,753.828V714.95h32.039c6.9,0,12.6,5.64,12.6,12.6v26.278h-20.159V731.39
		c0-1.261-1.14-2.399-2.399-2.399c-1.32,0-2.4,1.139-2.4,2.399v22.438H796.566z"/>
	<path class="st7" d="M856.686,753.828c-6.899,0-12.6-5.699-12.6-12.659V705.65h20.16v9.3h5.699v14.04h-5.699v7.739
		c0,1.62,1.379,2.999,3.06,2.999h2.52v14.1H856.686z"/>
	<path class="st7" d="M875.646,729.709V714.95h27.358c6.6,0,11.82,5.46,11.82,11.939v26.938h-30.059
		c-6.66,0-11.939-5.52-11.939-12.119c0-6,4.379-11.16,10.379-12H875.646z M895.925,738.35c0-1.5-1.38-2.521-2.819-2.521
		c-1.44,0-2.881,1.021-2.881,2.521s1.44,2.52,2.881,2.52C894.545,740.869,895.925,739.85,895.925,738.35z"/>
	<path class="st7" d="M937.863,753.828c-11.339,0-20.158-7.859-20.158-19.439c0-11.639,8.819-19.438,20.158-19.438h10.2v14.04
		h-5.521c-2.639,0-4.979,1.379-4.979,4.26c0,2.879,2.34,4.319,4.979,4.319h5.521v16.259H937.863z"/>
	<path class="st7" d="M963.543,753.828c-6.899,0-12.6-5.699-12.6-12.659V705.65h20.16v9.3h5.699v14.04h-5.699v7.739
		c0,1.62,1.38,2.999,3.06,2.999h2.52v14.1H963.543z"/>
</g>
</svg>